<svg t="1748436328761" class="icon" viewBox="0 0 1024 1024" version="1.1"
    xmlns="http://www.w3.org/2000/svg" p-id="1650" width="48" height="48" fill="#000">
    <path
        d="M512 377.408C432.96 240.192 280.512 155.008 116.736 161.856a32 32 0 0 0-30.592 30.656A418.88 418.88 0 0 0 131.84 401.28a428.16 428.16 0 0 0 143.104 160.448c24.64 16.576 44.672 38.72 58.432 64.448 13.824 25.792 20.992 54.4 20.928 83.456v120.896a32 32 0 0 0 32 32h251.328a32 32 0 0 0 32-32v-120.832c-0.064-29.056 7.04-57.664 20.864-83.456 13.824-25.728 33.856-47.872 58.432-64.448a427.968 427.968 0 0 0 143.104-160.448 418.688 418.688 0 0 0 45.76-208.768 32.064 32.064 0 0 0-30.72-30.72 439.68 439.68 0 0 0-258.88 71.488A428.608 428.608 0 0 0 512 377.344zM150.272 225.664c148.608 5.888 280.896 99.776 331.84 237.696a32 32 0 0 0 60.032 0.064 362.688 362.688 0 0 1 141.44-176.704 375.296 375.296 0 0 1 190.464-61.056 355.072 355.072 0 0 1-38.72 146.368 364.032 364.032 0 0 1-121.856 136.448A244.672 244.672 0 0 0 634.24 595.968a239.68 239.68 0 0 0-28.48 113.728v88.768H418.56v-88.832a239.68 239.68 0 0 0-28.48-113.728 244.672 244.672 0 0 0-79.104-87.36h-0.064a364.16 364.16 0 0 1-121.792-136.512 355.2 355.2 0 0 1-38.784-146.304z"
        p-id="1651"></path>
</svg>
